<?xml version="1.0" encoding="UTF-8"?>
<!DOCTYPE svg PUBLIC "-//W3C//DTD SVG 1.1//EN" "http://www.w3.org/Graphics/SVG/1.1/DTD/svg11.dtd">
<svg xmlns="http://www.w3.org/2000/svg" version="1.1" width="348px" height="76px" style="shape-rendering:geometricPrecision; text-rendering:geometricPrecision; image-rendering:optimizeQuality; fill-rule:evenodd; clip-rule:evenodd" xmlns:xlink="http://www.w3.org/1999/xlink">
<g><path style="opacity:1" fill="#2754b2" d="M 38.5,1.5 C 39.9002,2.10008 40.9002,3.10008 41.5,4.5C 39.5575,10.6624 37.2241,16.6624 34.5,22.5C 31.6554,27.5307 29.3221,32.8641 27.5,38.5C 26.7036,41.5559 25.7036,44.5559 24.5,47.5C 25.1749,50.6913 26.3415,53.6913 28,56.5C 29.6036,53.1792 31.1036,49.8458 32.5,46.5C 35.5684,50.6443 37.5684,55.311 38.5,60.5C 37.2913,64.5885 35.7913,68.5885 34,72.5C 30.0791,73.8238 26.2457,73.4904 22.5,71.5C 20.9844,68.4689 19.4844,65.4689 18,62.5C 17.1853,64.6228 16.1853,66.6228 15,68.5C 12.0372,66.5394 9.37058,64.206 7,61.5C 7.96747,57.1014 9.46747,52.7681 11.5,48.5C 7.92995,40.6241 4.26329,32.7907 0.5,25C 1.78973,21.5851 3.4564,18.4185 5.5,15.5C 6.5,15.5 7.5,15.5 8.5,15.5C 11.5925,21.3528 14.4258,27.3528 17,33.5C 18.7869,30.6365 20.2869,27.6365 21.5,24.5C 23.8163,19.2386 26.1496,13.9053 28.5,8.5C 29.0218,2.49145 32.3551,0.158112 38.5,1.5 Z"/></g>
<g><path style="opacity:0.027" fill="#c3d4eb" d="M 38.5,1.5 C 39.8333,1.5 41.1667,1.5 42.5,1.5C 42.7373,2.79105 42.404,3.79105 41.5,4.5C 40.9002,3.10008 39.9002,2.10008 38.5,1.5 Z"/></g>
<g><path style="opacity:0.859" fill="#a3a4a5" d="M 28.5,8.5 C 26.1496,13.9053 23.8163,19.2386 21.5,24.5C 19.176,19.1831 16.8426,13.8498 14.5,8.5C 17.0351,5.64097 20.2017,3.64097 24,2.5C 24.8136,5.17669 26.3136,7.17669 28.5,8.5 Z"/></g>
<g><path style="opacity:1" fill="#2f58b4" d="M 44.5,45.5 C 41.9316,41.1444 39.9316,36.4777 38.5,31.5C 42.2371,22.4541 46.0705,13.4541 50,4.5C 53.6124,6.28624 56.7791,8.61957 59.5,11.5C 54.8649,23.1009 49.8649,34.4342 44.5,45.5 Z"/></g>
<g><path style="opacity:1" fill="#95a6d8" d="M 8.5,15.5 C 7.5,15.5 6.5,15.5 5.5,15.5C 6.5,12.8333 7.5,12.8333 8.5,15.5 Z"/></g>
<g><path style="opacity:1" fill="#3d60b8" d="M 290.5,37.5 C 288.576,37.7107 288.243,38.3774 289.5,39.5C 293.688,41.025 296.021,44.025 296.5,48.5C 296.5,50.1667 296.5,51.8333 296.5,53.5C 294.988,61.1779 290.321,65.6779 282.5,67C 276.833,67.6667 271.167,67.6667 265.5,67C 264.069,66.5348 262.903,65.7014 262,64.5C 263.878,51.6525 266.711,38.9859 270.5,26.5C 272.379,25.6586 274.379,25.3253 276.5,25.5C 277.695,25.8656 278.361,26.699 278.5,28C 277.263,31.0983 276.763,34.265 277,37.5C 280.858,35.9053 284.191,33.572 287,30.5C 287.667,28.8333 287.667,27.1667 287,25.5C 282.77,22.8148 278.27,22.1482 273.5,23.5C 272.391,23.5569 271.391,23.8902 270.5,24.5C 266.348,24.3692 265.682,22.8692 268.5,20C 278.659,15.8312 287.492,17.6645 295,25.5C 296.002,30.4879 294.502,34.4879 290.5,37.5 Z M 278.5,62.5 C 275.833,62.5 273.167,62.5 270.5,62.5C 270.5,61.5 270.5,60.5 270.5,59.5C 271.943,54.3152 273.276,48.9819 274.5,43.5C 286.474,39.9759 290.641,44.3092 287,56.5C 284.751,59.3706 281.918,61.3706 278.5,62.5 Z"/></g>
<g><path style="opacity:0.977" fill="#a1a1a2" d="M 38.5,60.5 C 37.5684,55.311 35.5684,50.6443 32.5,46.5C 31.3197,43.4604 29.653,40.7937 27.5,38.5C 29.3221,32.8641 31.6554,27.5307 34.5,22.5C 35.0421,25.9122 36.3754,28.9122 38.5,31.5C 39.9316,36.4777 41.9316,41.1444 44.5,45.5C 45.7347,48.3013 47.2347,50.9679 49,53.5C 54.0717,41.4491 59.2384,29.4491 64.5,17.5C 66.3333,20.5 68.1667,23.5 70,26.5C 70.6667,28.8333 70.6667,31.1667 70,33.5C 65.2096,45.2191 60.0429,56.7191 54.5,68C 51.6666,69.7812 48.6666,71.2812 45.5,72.5C 43.1401,68.437 40.8067,64.437 38.5,60.5 Z"/></g>
<g><path style="opacity:1" fill="#5371c0" d="M 94.5,26.5 C 95.404,25.791 95.7373,24.791 95.5,23.5C 89.4632,23.1707 83.4632,23.5041 77.5,24.5C 77.6236,25.1067 77.9569,25.44 78.5,25.5C 85.1719,36.3525 91.6719,47.3525 98,58.5C 104.959,47.4168 111.792,36.2501 118.5,25C 115.773,24.1816 113.106,24.3483 110.5,25.5C 107.402,30.7089 104.068,35.7089 100.5,40.5C 99.5,40.1667 98.8333,39.5 98.5,38.5C 101.468,33.0361 104.634,27.7028 108,22.5C 113.072,21.5286 118.238,21.1953 123.5,21.5C 120.253,28.491 116.586,35.3244 112.5,42C 115.281,47.7288 118.447,53.2288 122,58.5C 128.301,47.3697 134.801,36.3697 141.5,25.5C 139.235,24.3526 136.902,24.1859 134.5,25C 131.113,29.6097 128.113,34.443 125.5,39.5C 123.952,39.1788 123.285,38.1788 123.5,36.5C 125.739,31.593 128.406,26.9264 131.5,22.5C 136.456,21.5059 141.456,21.1725 146.5,21.5C 146.245,24.0163 145.411,26.3496 144,28.5C 136.906,40.3643 129.572,52.031 122,63.5C 120.739,63.2409 119.739,62.5742 119,61.5C 116.252,56.3343 113.252,51.3343 110,46.5C 106.748,51.3343 103.748,56.3343 101,61.5C 99.7592,63.4206 98.2592,63.754 96.5,62.5C 88.03,49.2207 80.3633,35.5541 73.5,21.5C 82.1667,21.5 90.8333,21.5 99.5,21.5C 99.422,25.656 97.7553,28.9894 94.5,31.5C 93.2121,29.7015 93.2121,28.0348 94.5,26.5 Z"/></g>
<g><path style="opacity:0.506" fill="#87a9d8" d="M 94.5,26.5 C 92.2568,25.1883 89.5902,24.5217 86.5,24.5C 83.6445,24.5025 80.9779,24.8359 78.5,25.5C 77.9569,25.44 77.6236,25.1067 77.5,24.5C 83.4632,23.5041 89.4632,23.1707 95.5,23.5C 95.7373,24.791 95.404,25.791 94.5,26.5 Z"/></g>
<g><path style="opacity:0.576" fill="#9eb7df" d="M 273.5,23.5 C 274.5,24.1667 275.5,24.8333 276.5,25.5C 274.379,25.3253 272.379,25.6586 270.5,26.5C 270.5,25.8333 270.5,25.1667 270.5,24.5C 271.391,23.8902 272.391,23.5569 273.5,23.5 Z"/></g>
<g><path style="opacity:0.985" fill="#a7a7a7" d="M 153.5,29.5 C 160.703,29.8632 163.536,33.5299 162,40.5C 159.613,46.6136 155.113,49.6136 148.5,49.5C 148.257,52.8826 148.924,56.0492 150.5,59C 153.017,59.2566 155.35,58.5899 157.5,57C 160.444,53.3807 163.944,50.5474 168,48.5C 169.497,42.0024 172.663,36.5024 177.5,32C 184.403,29.2861 189.403,31.2861 192.5,38C 191.846,39.987 190.513,41.3203 188.5,42C 190.41,42.4083 191.41,43.5749 191.5,45.5C 190.02,49.4064 189.52,53.4064 190,57.5C 192.522,53.6446 195.689,50.478 199.5,48C 200.386,43.8487 201.22,39.6821 202,35.5C 205.354,31.4519 208.188,31.7853 210.5,36.5C 209.197,41.7823 208.697,47.1156 209,52.5C 213.02,45.762 215.186,38.4286 215.5,30.5C 217.861,29.2242 220.028,29.5575 222,31.5C 224.431,44.491 220.264,54.991 209.5,63C 203.906,65.7814 200.072,64.2814 198,58.5C 194.212,63.6864 189.545,64.6864 184,61.5C 177.133,66.2242 171.633,64.8909 167.5,57.5C 159.702,65.3714 151.202,66.3714 142,60.5C 138.843,52.0862 139.843,44.0862 145,36.5C 147.439,33.5492 150.272,31.2158 153.5,29.5 Z M 182.5,36.5 C 183.926,37.8015 185.259,39.3015 186.5,41C 183.025,44.378 180.859,48.5447 180,53.5C 179.385,55.1161 178.385,56.4495 177,57.5C 175.869,49.6873 177.703,42.6873 182.5,36.5 Z M 153.5,37.5 C 154.559,39.0699 154.059,40.4032 152,41.5C 151.7,39.9343 152.2,38.601 153.5,37.5 Z"/></g>
<g><path style="opacity:0.987" fill="#a7a7a7" d="M 241.5,29.5 C 248.778,30.3736 251.278,34.3736 249,41.5C 246.057,46.4743 241.724,49.4743 236,50.5C 235.222,54.5159 236.555,57.5159 240,59.5C 245.037,57.7969 248.87,54.6303 251.5,50C 253.167,49.3333 254.833,49.3333 256.5,50C 257.022,50.5613 257.355,51.228 257.5,52C 252.247,62.4563 243.914,66.123 232.5,63C 228.16,60.647 226.493,56.9804 227.5,52C 227.589,41.4556 232.255,33.9556 241.5,29.5 Z M 240.5,37.5 C 241.334,39.2632 240.834,40.9299 239,42.5C 238.878,40.7184 239.378,39.0518 240.5,37.5 Z"/></g>
<g><path style="opacity:1" fill="#3b5fb7" d="M 319.5,42.5 C 317.5,42.5 315.5,42.5 313.5,42.5C 312.778,42.0825 312.278,41.4158 312,40.5C 306.441,46.0624 304.608,52.7291 306.5,60.5C 306.711,62.4241 307.377,62.7574 308.5,61.5C 312.012,56.7997 313.845,51.4664 314,45.5C 314.383,44.944 314.883,44.6107 315.5,44.5C 316.167,44.5 316.833,44.5 317.5,44.5C 318.822,44.33 319.989,44.6634 321,45.5C 322.522,53.4249 320.356,60.0915 314.5,65.5C 310.061,68.2999 305.727,68.1333 301.5,65C 299.859,63.871 298.859,62.371 298.5,60.5C 298.5,56.8333 298.5,53.1667 298.5,49.5C 300.631,37.772 307.298,33.772 318.5,37.5C 320.379,39.0697 320.712,40.7363 319.5,42.5 Z"/></g>
<g><path style="opacity:1" fill="#3f61b8" d="M 333.5,41.5 C 333.343,42.8734 333.51,44.2068 334,45.5C 334.717,44.9558 335.217,44.2891 335.5,43.5C 336.59,37.8741 339.757,35.8741 345,37.5C 345.667,38.5 345.667,39.5 345,40.5C 342.088,45.1576 339.588,49.991 337.5,55C 338.292,58.7945 340.292,61.7945 343.5,64C 339.446,67.2183 335.613,66.7183 332,62.5C 330.089,67.2116 326.922,68.7116 322.5,67C 321.978,66.4387 321.645,65.772 321.5,65C 324.181,60.8044 326.181,56.3044 327.5,51.5C 326.402,47.1948 325.902,42.8615 326,38.5C 330.003,35.7514 332.503,36.7514 333.5,41.5 Z"/></g>
<g><path style="opacity:0.086" fill="#d6e3ef" d="M 290.5,37.5 C 290.167,38.1667 289.833,38.8333 289.5,39.5C 288.243,38.3774 288.576,37.7107 290.5,37.5 Z"/></g>
<g><path style="opacity:0.306" fill="#b5c9e8" d="M 123.5,36.5 C 123.285,38.1788 123.952,39.1788 125.5,39.5C 124.791,40.404 123.791,40.7373 122.5,40.5C 122.232,38.901 122.566,37.5676 123.5,36.5 Z"/></g>
<g><path style="opacity:0.878" fill="#8ea6d7" d="M 313.5,42.5 C 315.5,42.5 317.5,42.5 319.5,42.5C 318.833,43.1667 318.167,43.8333 317.5,44.5C 316.833,44.5 316.167,44.5 315.5,44.5C 314.833,43.8333 314.167,43.1667 313.5,42.5 Z"/></g>
<g><path style="opacity:0.408" fill="#a5bde2" d="M 333.5,41.5 C 334.167,42.1667 334.833,42.8333 335.5,43.5C 335.217,44.2891 334.717,44.9558 334,45.5C 333.51,44.2068 333.343,42.8734 333.5,41.5 Z"/></g>
<g><path style="opacity:0.831" fill="#88a4d6" d="M 296.5,48.5 C 297.167,48.8333 297.833,49.1667 298.5,49.5C 298.5,53.1667 298.5,56.8333 298.5,60.5C 297.833,58.1667 297.167,55.8333 296.5,53.5C 296.5,51.8333 296.5,50.1667 296.5,48.5 Z"/></g>
<g><path style="opacity:0.404" fill="#c6daee" d="M 306.5,60.5 C 307.167,60.8333 307.833,61.1667 308.5,61.5C 307.377,62.7574 306.711,62.4241 306.5,60.5 Z"/></g>
<g><path style="opacity:0.204" fill="#a1bbe0" d="M 270.5,59.5 C 270.5,60.5 270.5,61.5 270.5,62.5C 273.167,62.5 275.833,62.5 278.5,62.5C 275.713,63.4767 272.713,63.81 269.5,63.5C 269.232,61.901 269.566,60.5676 270.5,59.5 Z"/></g>
</svg>
