<?xml version="1.0" encoding="UTF-8"?>
<!DOCTYPE svg PUBLIC "-//W3C//DTD SVG 1.1//EN" "http://www.w3.org/Graphics/SVG/1.1/DTD/svg11.dtd">
<svg xmlns="http://www.w3.org/2000/svg" version="1.1" width="343px" height="85px" style="shape-rendering:geometricPrecision; text-rendering:geometricPrecision; image-rendering:optimizeQuality; fill-rule:evenodd; clip-rule:evenodd" xmlns:xlink="http://www.w3.org/1999/xlink">
<g><path style="opacity:0.345" fill="#aaaaaa" d="M 27.5,-0.5 C 30.8333,-0.5 34.1667,-0.5 37.5,-0.5C 37.5,-0.166667 37.5,0.166667 37.5,0.5C 34.0613,0.252932 30.728,0.586265 27.5,1.5C 27.5,0.833333 27.5,0.166667 27.5,-0.5 Z"/></g>
<g><path style="opacity:1" fill="#141414" d="M 37.5,0.5 C 38.3764,0.369118 39.0431,0.702451 39.5,1.5C 36.826,7.86238 34.1594,14.1957 31.5,20.5C 28.7949,25.5957 26.4615,30.9291 24.5,36.5C 23.6537,39.6983 22.6537,42.865 21.5,46C 22.245,48.9922 23.4117,51.8256 25,54.5C 26.5304,51.4392 28.0304,48.4392 29.5,45.5C 32.2895,49.4156 34.2895,53.749 35.5,58.5C 34.1307,62.9124 32.464,67.2457 30.5,71.5C 27.1035,72.4939 23.7701,72.1605 20.5,70.5C 18.4128,67.3272 16.5795,63.9939 15,60.5C 14.3831,66.5135 11.8831,67.6801 7.5,64C 5.77268,62.6106 4.43935,60.9439 3.5,59C 5.36184,55.0811 7.02851,51.0811 8.5,47C 5.86085,40.8862 2.86085,35.0529 -0.5,29.5C -0.5,25.5 -0.5,21.5 -0.5,17.5C 0.93195,15.6729 2.59862,14.0063 4.5,12.5C 7.56357,18.9598 10.8969,25.2932 14.5,31.5C 16.3947,28.3793 17.728,25.046 18.5,21.5C 21.3892,16.8682 23.7225,11.8682 25.5,6.5C 25.7959,4.59699 26.4625,2.93033 27.5,1.5C 30.728,0.586265 34.0613,0.252932 37.5,0.5 Z"/></g>
<g><path style="opacity:1" fill="#365ab3" d="M 25.5,6.5 C 23.7225,11.8682 21.3892,16.8682 18.5,21.5C 16.2569,17.3144 14.0902,12.9811 12,8.5C 11.3333,7.5 11.3333,6.5 12,5.5C 15.0579,2.93787 18.3913,1.93787 22,2.5C 22.4709,4.24635 23.1376,5.91302 24,7.5C 24.3826,6.94404 24.8826,6.61071 25.5,6.5 Z"/></g>
<g><path style="opacity:1" fill="#191919" d="M 42.5,42.5 C 41.8826,42.6107 41.3826,42.944 41,43.5C 38.5965,39.3653 36.7632,35.0319 35.5,30.5C 38.7169,21.0734 42.7169,12.0734 47.5,3.5C 51.0163,4.75587 54.0163,6.75587 56.5,9.5C 52.094,20.6414 47.4273,31.6414 42.5,42.5 Z"/></g>
<g><path style="opacity:1" fill="#3d60b8" d="M 293.5,46.5 C 293.5,48.1667 293.5,49.8333 293.5,51.5C 292.014,59.1503 287.348,63.6503 279.5,65C 273.833,65.6667 268.167,65.6667 262.5,65C 261.069,64.5348 259.903,63.7014 259,62.5C 260.878,49.6525 263.711,36.9859 267.5,24.5C 269.379,23.6586 271.379,23.3253 273.5,23.5C 274.695,23.8656 275.361,24.699 275.5,26C 274.263,29.0983 273.763,32.265 274,35.5C 277.858,33.9053 281.191,31.572 284,28.5C 284.667,26.8333 284.667,25.1667 284,23.5C 279.77,20.8148 275.27,20.1482 270.5,21.5C 269.391,21.5569 268.391,21.8902 267.5,22.5C 263.348,22.3692 262.682,20.8692 265.5,18C 275.659,13.8312 284.492,15.6645 292,23.5C 292.923,28.9887 291.09,33.322 286.5,36.5C 290.45,38.7709 292.784,42.1043 293.5,46.5 Z M 275.5,60.5 C 272.302,61.0356 269.635,60.369 267.5,58.5C 268.828,52.8627 270.162,47.196 271.5,41.5C 283.474,37.9759 287.641,42.3092 284,54.5C 281.751,57.3706 278.918,59.3706 275.5,60.5 Z"/></g>
<g><path style="opacity:1" fill="#2d56b2" d="M 35.5,58.5 C 34.2895,53.749 32.2895,49.4156 29.5,45.5C 28.057,42.2718 26.3904,39.2718 24.5,36.5C 26.4615,30.9291 28.7949,25.5957 31.5,20.5C 32.3143,24.116 33.6477,27.4493 35.5,30.5C 36.7632,35.0319 38.5965,39.3653 41,43.5C 41.3826,42.944 41.8826,42.6107 42.5,42.5C 42.7986,46.1055 43.9653,49.4388 46,52.5C 50.9087,40.3534 56.0754,28.3534 61.5,16.5C 64.7402,20.3642 66.7402,24.8642 67.5,30C 62.8437,42.4777 57.5104,54.6444 51.5,66.5C 48.3582,69.2759 44.8582,70.2759 41,69.5C 39.1207,65.7415 37.2874,62.0748 35.5,58.5 Z"/></g>
<g><path style="opacity:0.559" fill="#7f7f7f" d="M 105.5,20.5 C 110.305,19.5128 115.305,19.1795 120.5,19.5C 120.737,20.791 120.404,21.791 119.5,22.5C 115.285,20.5636 110.619,19.8969 105.5,20.5 Z"/></g>
<g><path style="opacity:0.56" fill="#7a7a7a" d="M 143.5,20.5 C 138.405,20.2213 133.405,20.5546 128.5,21.5C 130.571,20.1914 133.071,19.5248 136,19.5C 138.69,19.5029 141.19,19.8362 143.5,20.5 Z"/></g>
<g><path style="opacity:1" fill="#3b3b3b" d="M 105.5,20.5 C 110.619,19.8969 115.285,20.5636 119.5,22.5C 116.057,28.5487 112.724,34.7154 109.5,41C 112.535,46.2338 115.701,51.4005 119,56.5C 125.5,45.5 132,34.5 138.5,23.5C 136.235,22.3526 133.902,22.1859 131.5,23C 128.541,27.7512 125.707,32.5845 123,37.5C 121.989,38.3366 120.822,38.67 119.5,38.5C 121.719,32.3932 124.719,26.7266 128.5,21.5C 133.405,20.5546 138.405,20.2213 143.5,20.5C 136.198,34.6596 128.198,48.493 119.5,62C 118.551,62.6172 117.718,62.4506 117,61.5C 113.919,55.6688 110.585,50.0021 107,44.5C 103.403,50.7059 99.5692,56.7059 95.5,62.5C 94.5224,62.0233 93.6891,61.3567 93,60.5C 85.9185,48.0015 78.5852,35.6681 71,23.5C 70.51,22.2068 70.3433,20.8734 70.5,19.5C 79.1667,19.5 87.8333,19.5 96.5,19.5C 96.422,23.656 94.7553,26.9894 91.5,29.5C 90.2885,27.1595 90.6218,24.9928 92.5,23C 86.8041,22.1701 81.1375,22.3368 75.5,23.5C 82,34.5 88.5,45.5 95,56.5C 101.959,45.4168 108.792,34.2501 115.5,23C 112.773,22.1816 110.106,22.3483 107.5,23.5C 104.822,28.8672 101.655,33.8672 98,38.5C 96.9412,38.3699 96.1079,37.8699 95.5,37C 98.7334,31.3532 102.067,25.8532 105.5,20.5 Z"/></g>
<g><path style="opacity:0.62" fill="#92adda" d="M 270.5,21.5 C 271.5,22.1667 272.5,22.8333 273.5,23.5C 271.379,23.3253 269.379,23.6586 267.5,24.5C 267.5,23.8333 267.5,23.1667 267.5,22.5C 268.391,21.8902 269.391,21.5569 270.5,21.5 Z"/></g>
<g><path style="opacity:1" fill="#202020" d="M 188.5,39.5 C 186.833,39.5 185.167,39.5 183.5,39.5C 182.057,38.6649 181.057,37.3316 180.5,35.5C 174.79,41.322 172.624,48.322 174,56.5C 177.022,52.2851 179.189,47.6184 180.5,42.5C 180.957,41.7025 181.624,41.3691 182.5,41.5C 183.5,41.5 184.5,41.5 185.5,41.5C 187.484,41.484 188.484,42.484 188.5,44.5C 187.02,48.4064 186.52,52.4064 187,56.5C 189.183,54.0929 191.35,51.7596 193.5,49.5C 194.833,49.5 196.167,49.5 197.5,49.5C 197.5,48.1667 197.5,46.8333 197.5,45.5C 197.522,41.3888 198.189,37.3888 199.5,33.5C 201.956,30.9199 204.456,30.9199 207,33.5C 206.515,40.2199 205.848,46.8866 205,53.5C 209.657,46.2148 212.157,38.2148 212.5,29.5C 214.316,28.2651 215.983,28.2651 217.5,29.5C 217.427,31.0269 218.094,32.0269 219.5,32.5C 220.812,43.7421 217.145,53.2421 208.5,61C 206.084,62.0629 203.584,62.8963 201,63.5C 199.019,63.1015 197.519,62.1015 196.5,60.5C 196.66,58.8008 196.494,57.1341 196,55.5C 195.283,56.0442 194.783,56.7109 194.5,57.5C 191.013,62.7229 186.513,63.7229 181,60.5C 173.61,65.4732 168.276,63.8065 165,55.5C 158.197,63.5481 150.03,65.3814 140.5,61C 135.697,54.9104 135.197,48.4104 139,41.5C 141.039,34.7939 145.373,30.4606 152,28.5C 158.424,29.5869 160.757,33.2536 159,39.5C 156.613,45.6136 152.113,48.6136 145.5,48.5C 145.351,51.6074 145.851,54.6074 147,57.5C 149.647,58.4637 152.147,57.9637 154.5,56C 156.833,53.6667 159.167,51.3333 161.5,49C 162.793,48.51 164.127,48.3433 165.5,48.5C 166.226,40.5416 169.893,34.3749 176.5,30C 181.952,28.9771 186.119,30.8104 189,35.5C 189.765,37.0657 189.598,38.3991 188.5,39.5 Z M 183.5,39.5 C 183.167,40.1667 182.833,40.8333 182.5,41.5C 181.624,41.3691 180.957,41.7025 180.5,42.5C 179.189,47.6184 177.022,52.2851 174,56.5C 172.624,48.322 174.79,41.322 180.5,35.5C 181.057,37.3316 182.057,38.6649 183.5,39.5 Z M 150.5,36.5 C 151.167,36.5 151.5,36.8333 151.5,37.5C 151.5,37.8333 151.5,38.1667 151.5,38.5C 150.542,38.9528 149.708,39.6195 149,40.5C 148.601,40.2716 148.435,39.9382 148.5,39.5C 149.167,38.5 149.833,37.5 150.5,36.5 Z"/></g>
<g><path style="opacity:1" fill="#232323" d="M 229.5,61.5 C 229.027,60.0937 228.027,59.427 226.5,59.5C 222.59,48.6371 224.923,39.1371 233.5,31C 238.16,27.5863 242.327,28.0863 246,32.5C 247.166,42.5073 242.666,47.8406 232.5,48.5C 232.113,58.3288 235.779,60.4955 243.5,55C 244.928,52.8153 246.595,50.8153 248.5,49C 250.167,48.3333 251.833,48.3333 253.5,49C 254.022,49.5613 254.355,50.228 254.5,51C 251.166,58.8113 245.166,62.978 236.5,63.5C 233.845,63.5596 231.511,62.8929 229.5,61.5 Z M 238.5,36.5 C 238.25,38.674 237.25,40.3406 235.5,41.5C 235.75,39.326 236.75,37.6594 238.5,36.5 Z"/></g>
<g><path style="opacity:0.384" fill="#9d9d9d" d="M 217.5,29.5 C 218.906,29.9731 219.573,30.9731 219.5,32.5C 218.094,32.0269 217.427,31.0269 217.5,29.5 Z"/></g>
<g><path style="opacity:1" fill="#3c60b8" d="M 316.5,40.5 C 314.5,40.5 312.5,40.5 310.5,40.5C 309.778,40.0825 309.278,39.4158 309,38.5C 304.731,42.275 302.565,47.1083 302.5,53C 302.75,55.4223 303.584,57.5889 305,59.5C 308.964,54.9446 310.964,49.6113 311,43.5C 311.383,42.944 311.883,42.6107 312.5,42.5C 313.167,42.5 313.833,42.5 314.5,42.5C 315.822,42.33 316.989,42.6634 318,43.5C 319.757,54.6785 315.424,62.0118 305,65.5C 300.371,64.9547 297.204,62.6214 295.5,58.5C 295.5,54.8333 295.5,51.1667 295.5,47.5C 297.631,35.772 304.298,31.772 315.5,35.5C 317.379,37.0697 317.712,38.7363 316.5,40.5 Z"/></g>
<g><path style="opacity:0.243" fill="#c1c1c1" d="M 151.5,37.5 C 151.5,36.8333 151.167,36.5 150.5,36.5C 150.783,35.7109 151.283,35.0442 152,34.5C 152.74,35.7494 152.573,36.7494 151.5,37.5 Z"/></g>
<g><path style="opacity:0.999" fill="#3f61b8" d="M 330.5,39.5 C 330.343,40.8734 330.51,42.2068 331,43.5C 331.717,42.9558 332.217,42.2891 332.5,41.5C 333.678,35.6246 337.011,33.6246 342.5,35.5C 342.5,36.5 342.5,37.5 342.5,38.5C 339.2,42.9297 336.533,47.7631 334.5,53C 335.292,56.7945 337.292,59.7945 340.5,62C 336.446,65.2183 332.613,64.7183 329,60.5C 327.636,63.3633 325.47,65.3633 322.5,66.5C 320.503,66.0142 319.169,64.8475 318.5,63C 319.943,59.2792 321.777,55.7792 324,52.5C 323.796,47.1508 323.462,41.8175 323,36.5C 327.003,33.7514 329.503,34.7514 330.5,39.5 Z"/></g>
<g><path style="opacity:0.018" fill="#b7b7b7" d="M 151.5,38.5 C 150.7,40.6825 149.2,42.3492 147,43.5C 146.652,41.8602 147.152,40.5268 148.5,39.5C 148.435,39.9382 148.601,40.2716 149,40.5C 149.708,39.6195 150.542,38.9528 151.5,38.5 Z"/></g>
<g><path style="opacity:0.129" fill="#c9c9c9" d="M 183.5,39.5 C 185.167,39.5 186.833,39.5 188.5,39.5C 187.5,40.1667 186.5,40.8333 185.5,41.5C 184.5,41.5 183.5,41.5 182.5,41.5C 182.833,40.8333 183.167,40.1667 183.5,39.5 Z"/></g>
<g><path style="opacity:0.851" fill="#8ea6d8" d="M 310.5,40.5 C 312.5,40.5 314.5,40.5 316.5,40.5C 315.833,41.1667 315.167,41.8333 314.5,42.5C 313.833,42.5 313.167,42.5 312.5,42.5C 311.833,41.8333 311.167,41.1667 310.5,40.5 Z"/></g>
<g><path style="opacity:0.38" fill="#a6bde0" d="M 330.5,39.5 C 331.167,40.1667 331.833,40.8333 332.5,41.5C 332.217,42.2891 331.717,42.9558 331,43.5C 330.51,42.2068 330.343,40.8734 330.5,39.5 Z"/></g>
<g><path style="opacity:0.549" fill="#b2b2b2" d="M 197.5,45.5 C 197.5,46.8333 197.5,48.1667 197.5,49.5C 196.167,49.5 194.833,49.5 193.5,49.5C 194.209,48.596 195.209,48.2627 196.5,48.5C 196.263,47.209 196.596,46.209 197.5,45.5 Z"/></g>
<g><path style="opacity:0.796" fill="#88a4d6" d="M 293.5,46.5 C 294.167,46.8333 294.833,47.1667 295.5,47.5C 295.5,51.1667 295.5,54.8333 295.5,58.5C 294.833,56.1667 294.167,53.8333 293.5,51.5C 293.5,49.8333 293.5,48.1667 293.5,46.5 Z"/></g>
<g><path style="opacity:0.51" fill="#8b8b8b" d="M 196.5,60.5 C 195.833,59.5 195.167,58.5 194.5,57.5C 194.783,56.7109 195.283,56.0442 196,55.5C 196.494,57.1341 196.66,58.8008 196.5,60.5 Z"/></g>
<g><path style="opacity:0.463" fill="#999999" d="M 226.5,59.5 C 228.027,59.427 229.027,60.0937 229.5,61.5C 227.973,61.573 226.973,60.9063 226.5,59.5 Z"/></g>
<g><path style="opacity:0.165" fill="#a9c1e3" d="M 267.5,58.5 C 269.635,60.369 272.302,61.0356 275.5,60.5C 272.713,61.4767 269.713,61.81 266.5,61.5C 266.263,60.209 266.596,59.209 267.5,58.5 Z"/></g>
</svg>
